<svg xmlns="http://www.w3.org/2000/svg" viewBox="0 0 64 64" width="64" height="64">
  <defs>
    <linearGradient id="badge" x1="0" y1="0" x2="0" y2="1">
      <stop offset="0" stop-color="#1f4034"/>
      <stop offset="1" stop-color="#0a1116"/>
    </linearGradient>
    <linearGradient id="fl" x1="0" y1="1" x2="0" y2="0">
      <stop offset="0" stop-color="#e23a10"/>
      <stop offset="0.45" stop-color="#ff8a18"/>
      <stop offset="0.8" stop-color="#ffc22e"/>
      <stop offset="1" stop-color="#ffe98a"/>
    </linearGradient>
    <radialGradient id="glow" cx="50%" cy="62%" r="55%">
      <stop offset="0" stop-color="#ffd23b" stop-opacity=".55"/>
      <stop offset="100%" stop-color="#ffd23b" stop-opacity="0"/>
    </radialGradient>
  </defs>
  <rect x="2" y="2" width="60" height="60" rx="15" fill="url(#badge)" stroke="#f6c445" stroke-width="3"/>
  <circle cx="32" cy="37" r="23" fill="url(#glow)"/>
  <!-- main flame -->
  <path d="M32 9 C34 20 44 24 44 37 a12 12 0 0 1 -24 0 C20 29 25 28 26 20 C29 27 33 25 32 9 Z" fill="url(#fl)"/>
  <!-- inner flame -->
  <path d="M32 27 C34 33 37 35 37 41 a5 5 0 0 1 -10 0 C27 37 30 37 31 33 C32 37 33 36 32 27 Z" fill="#ffe98a"/>
</svg>
